<svg xmlns="http://www.w3.org/2000/svg" xmlns:xlink="http://www.w3.org/1999/xlink" width="2000" zoomAndPan="magnify" viewBox="0 0 1500 1499.999933" height="2000" preserveAspectRatio="xMidYMid meet" version="1.0"><defs><clipPath id="eeffb52f02"><path d="M 77.777344 125.835938 L 1330.277344 125.835938 L 1330.277344 1349.832031 L 77.777344 1349.832031 Z M 77.777344 125.835938 " clip-rule="nonzero"/></clipPath></defs><path fill="#0e1741" d="M 1161.003906 787.960938 C 1161.003906 796.019531 1160.804688 804.070312 1160.410156 812.121094 C 1160.015625 820.167969 1159.421875 828.199219 1158.632812 836.21875 C 1157.84375 844.238281 1156.855469 852.234375 1155.675781 860.203125 C 1154.492188 868.171875 1153.117188 876.109375 1151.542969 884.011719 C 1149.972656 891.914062 1148.207031 899.773438 1146.25 907.589844 C 1144.292969 915.40625 1142.144531 923.171875 1139.804688 930.882812 C 1137.464844 938.59375 1134.9375 946.242188 1132.222656 953.828125 C 1129.507812 961.414062 1126.609375 968.929688 1123.527344 976.375 C 1120.445312 983.816406 1117.179688 991.183594 1113.734375 998.464844 C 1110.289062 1005.75 1106.667969 1012.945312 1102.871094 1020.050781 C 1099.070312 1027.15625 1095.101562 1034.164062 1090.960938 1041.078125 C 1086.816406 1047.988281 1082.507812 1054.792969 1078.03125 1061.492188 C 1073.554688 1068.191406 1068.917969 1074.777344 1064.117188 1081.25 C 1059.316406 1087.722656 1054.363281 1094.074219 1049.25 1100.300781 C 1044.140625 1106.53125 1038.878906 1112.628906 1033.46875 1118.601562 C 1028.054688 1124.570312 1022.5 1130.402344 1016.804688 1136.101562 C 1011.105469 1141.800781 1005.273438 1147.351562 999.304688 1152.765625 C 993.332031 1158.175781 987.234375 1163.4375 981.003906 1168.550781 C 974.777344 1173.660156 968.425781 1178.617188 961.957031 1183.417969 C 955.484375 1188.214844 948.898438 1192.855469 942.199219 1197.332031 C 935.5 1201.808594 928.695312 1206.117188 921.785156 1210.257812 C 914.871094 1214.402344 907.863281 1218.371094 900.757812 1222.171875 C 893.652344 1225.96875 886.457031 1229.589844 879.171875 1233.035156 C 871.890625 1236.480469 864.527344 1239.746094 857.082031 1242.828125 C 849.636719 1245.910156 842.125 1248.8125 834.535156 1251.527344 C 826.949219 1254.238281 819.300781 1256.765625 811.59375 1259.105469 C 803.882812 1261.445312 796.117188 1263.59375 788.304688 1265.550781 C 780.488281 1267.507812 772.628906 1269.273438 764.726562 1270.847656 C 756.824219 1272.417969 748.886719 1273.792969 740.917969 1274.976562 C 732.945312 1276.160156 724.953125 1277.144531 716.933594 1277.933594 C 708.914062 1278.726562 700.882812 1279.316406 692.835938 1279.714844 C 684.785156 1280.109375 676.734375 1280.304688 668.675781 1280.304688 C 660.621094 1280.304688 652.566406 1280.109375 644.519531 1279.714844 C 636.472656 1279.316406 628.4375 1278.726562 620.421875 1277.933594 C 612.402344 1277.144531 604.40625 1276.160156 596.4375 1274.976562 C 588.46875 1273.792969 580.53125 1272.417969 572.628906 1270.847656 C 564.726562 1269.273438 556.867188 1267.507812 549.050781 1265.550781 C 541.234375 1263.59375 533.472656 1261.445312 525.761719 1259.105469 C 518.050781 1256.765625 510.402344 1254.238281 502.816406 1251.527344 C 495.230469 1248.8125 487.714844 1245.910156 480.273438 1242.828125 C 472.828125 1239.746094 465.464844 1236.480469 458.179688 1233.035156 C 450.898438 1229.589844 443.703125 1225.96875 436.597656 1222.171875 C 429.492188 1218.371094 422.480469 1214.402344 415.570312 1210.257812 C 408.660156 1206.117188 401.855469 1201.808594 395.15625 1197.332031 C 388.457031 1192.855469 381.871094 1188.214844 375.398438 1183.417969 C 368.925781 1178.617188 362.578125 1173.660156 356.347656 1168.550781 C 350.121094 1163.4375 344.019531 1158.175781 338.050781 1152.765625 C 332.082031 1147.351562 326.246094 1141.800781 320.550781 1136.101562 C 314.851562 1130.402344 309.296875 1124.570312 303.886719 1118.601562 C 298.476562 1112.628906 293.214844 1106.53125 288.105469 1100.300781 C 282.992188 1094.074219 278.035156 1087.722656 273.238281 1081.25 C 268.4375 1074.777344 263.800781 1068.191406 259.324219 1061.492188 C 254.847656 1054.792969 250.539062 1047.988281 246.394531 1041.078125 C 242.253906 1034.164062 238.28125 1027.15625 234.484375 1020.050781 C 230.6875 1012.945312 227.066406 1005.75 223.621094 998.464844 C 220.175781 991.183594 216.910156 983.816406 213.828125 976.375 C 210.742188 968.929688 207.84375 961.414062 205.128906 953.828125 C 202.417969 946.242188 199.890625 938.59375 197.550781 930.882812 C 195.210938 923.171875 193.0625 915.40625 191.105469 907.589844 C 189.148438 899.773438 187.382812 891.914062 185.8125 884.011719 C 184.238281 876.109375 182.863281 868.171875 181.679688 860.203125 C 180.496094 852.234375 179.511719 844.238281 178.722656 836.21875 C 177.933594 828.199219 177.339844 820.167969 176.945312 812.121094 C 176.546875 804.070312 176.351562 796.019531 176.351562 787.960938 C 176.351562 779.902344 176.546875 771.851562 176.945312 763.804688 C 177.339844 755.753906 177.933594 747.722656 178.722656 739.703125 C 179.511719 731.683594 180.496094 723.691406 181.679688 715.71875 C 182.863281 707.75 184.238281 699.8125 185.8125 691.910156 C 187.382812 684.007812 189.148438 676.148438 191.105469 668.332031 C 193.0625 660.515625 195.210938 652.75 197.550781 645.039062 C 199.890625 637.332031 202.417969 629.683594 205.128906 622.09375 C 207.84375 614.507812 210.742188 606.992188 213.828125 599.550781 C 216.910156 592.105469 220.175781 584.742188 223.621094 577.457031 C 227.066406 570.171875 230.6875 562.976562 234.484375 555.871094 C 238.28125 548.765625 242.253906 541.757812 246.394531 534.84375 C 250.539062 527.933594 254.847656 521.128906 259.324219 514.429688 C 263.800781 507.730469 268.4375 501.144531 273.238281 494.671875 C 278.035156 488.199219 282.992188 481.847656 288.105469 475.621094 C 293.214844 469.390625 298.476562 463.292969 303.886719 457.324219 C 309.296875 451.351562 314.851562 445.519531 320.550781 439.820312 C 326.246094 434.125 332.082031 428.570312 338.050781 423.15625 C 344.019531 417.746094 350.121094 412.484375 356.347656 407.375 C 362.578125 402.261719 368.925781 397.304688 375.398438 392.507812 C 381.871094 387.707031 388.457031 383.066406 395.15625 378.589844 C 401.855469 374.113281 408.660156 369.804688 415.570312 365.664062 C 422.480469 361.519531 429.492188 357.550781 436.597656 353.75 C 443.703125 349.953125 450.898438 346.332031 458.179688 342.886719 C 465.464844 339.441406 472.828125 336.175781 480.273438 333.09375 C 487.714844 330.011719 495.230469 327.109375 502.816406 324.398438 C 510.402344 321.683594 518.050781 319.15625 525.761719 316.816406 C 533.472656 314.476562 541.234375 312.328125 549.050781 310.371094 C 556.867188 308.414062 564.726562 306.648438 572.628906 305.078125 C 580.53125 303.503906 588.46875 302.128906 596.4375 300.945312 C 604.40625 299.761719 612.402344 298.777344 620.421875 297.988281 C 628.4375 297.195312 636.472656 296.605469 644.519531 296.210938 C 652.566406 295.8125 660.621094 295.617188 668.675781 295.617188 C 676.734375 295.617188 684.785156 295.8125 692.835938 296.210938 C 700.882812 296.605469 708.914062 297.195312 716.933594 297.988281 C 724.953125 298.777344 732.945312 299.761719 740.917969 300.945312 C 748.886719 302.128906 756.824219 303.503906 764.726562 305.078125 C 772.628906 306.648438 780.488281 308.414062 788.304688 310.371094 C 796.117188 312.328125 803.882812 314.476562 811.59375 316.816406 C 819.300781 319.15625 826.949219 321.683594 834.535156 324.398438 C 842.125 327.109375 849.636719 330.011719 857.082031 333.09375 C 864.527344 336.175781 871.890625 339.441406 879.171875 342.886719 C 886.457031 346.332031 893.652344 349.953125 900.757812 353.75 C 907.863281 357.550781 914.871094 361.519531 921.785156 365.664062 C 928.695312 369.804688 935.5 374.113281 942.199219 378.589844 C 948.898438 383.066406 955.484375 387.707031 961.957031 392.507812 C 968.425781 397.304688 974.777344 402.261719 981.003906 407.375 C 987.234375 412.484375 993.332031 417.746094 999.304688 423.15625 C 1005.273438 428.570312 1011.105469 434.125 1016.804688 439.820312 C 1022.5 445.519531 1028.054688 451.351562 1033.46875 457.324219 C 1038.878906 463.292969 1044.140625 469.390625 1049.25 475.621094 C 1054.363281 481.847656 1059.316406 488.199219 1064.117188 494.671875 C 1068.917969 501.144531 1073.554688 507.730469 1078.03125 514.429688 C 1082.507812 521.128906 1086.816406 527.933594 1090.960938 534.84375 C 1095.101562 541.757812 1099.070312 548.765625 1102.871094 555.871094 C 1106.667969 562.976562 1110.289062 570.171875 1113.734375 577.457031 C 1117.179688 584.742188 1120.445312 592.105469 1123.527344 599.550781 C 1126.609375 606.992188 1129.507812 614.507812 1132.222656 622.09375 C 1134.9375 629.683594 1137.464844 637.332031 1139.804688 645.039062 C 1142.144531 652.75 1144.292969 660.515625 1146.25 668.332031 C 1148.207031 676.148438 1149.972656 684.007812 1151.542969 691.910156 C 1153.117188 699.8125 1154.492188 707.75 1155.675781 715.71875 C 1156.855469 723.691406 1157.84375 731.683594 1158.632812 739.703125 C 1159.421875 747.722656 1160.015625 755.753906 1160.410156 763.804688 C 1160.804688 771.851562 1161.003906 779.902344 1161.003906 787.960938 Z M 1161.003906 787.960938 " fill-opacity="1" fill-rule="nonzero"/><g clip-path="url(#eeffb52f02)"><path stroke-linecap="butt" transform="matrix(17.583076, 0, 0, 17.583748, 668.677248, 787.961168)" fill="none" stroke-linejoin="miter" d="M 17.999957 -0.0000131161 C 17.999957 0.294559 17.992848 0.58891 17.978408 0.88326 C 17.963968 1.177388 17.942196 1.471072 17.913315 1.764311 C 17.884434 2.057551 17.848444 2.34968 17.805123 2.641142 C 17.762024 2.932604 17.711594 3.222734 17.654055 3.51153 C 17.596738 3.800549 17.532089 4.08779 17.460554 4.373699 C 17.389018 4.659385 17.310374 4.943294 17.224842 5.225204 C 17.139311 5.507114 17.047115 5.78658 16.947809 6.064047 C 16.848504 6.341292 16.742534 6.616093 16.629899 6.888228 C 16.517042 7.160363 16.397742 7.42961 16.271778 7.695969 C 16.145813 7.962329 16.013406 8.225355 15.874556 8.48505 C 15.735706 8.744967 15.590636 9.001107 15.439123 9.253915 C 15.28761 9.506501 15.130099 9.75531 14.966367 10.000343 C 14.802858 10.245154 14.633128 10.485966 14.457844 10.722557 C 14.282338 10.959148 14.101056 11.191296 13.914219 11.419 C 13.727383 11.646705 13.534993 11.869745 13.337049 12.08812 C 13.139327 12.306272 12.936273 12.519537 12.727887 12.727915 C 12.519723 12.936293 12.306228 13.139339 12.088067 13.337054 C 11.869684 13.53499 11.646858 13.727373 11.419144 13.914202 C 11.191431 14.101031 10.959274 14.282307 10.722674 14.457806 C 10.486074 14.633305 10.245253 14.802807 10.000211 14.966532 C 9.755391 15.130035 9.506572 15.287763 9.253754 15.439048 C 9.001159 15.590555 8.745009 15.73562 8.485082 15.874686 C 8.225377 16.013531 7.96234 16.145933 7.695971 16.271892 C 7.429602 16.397852 7.160566 16.517147 6.888198 16.629778 C 6.616053 16.742631 6.341464 16.848597 6.063986 16.947898 C 5.786731 17.046978 5.507032 17.139393 5.225111 17.224921 C 4.943191 17.310449 4.659493 17.389091 4.373573 17.460623 C 4.087876 17.532156 3.800624 17.59658 3.511594 17.654117 C 3.222787 17.711654 2.932646 17.76186 2.641173 17.80518 C 2.349699 17.848499 2.057559 17.884488 1.764308 17.913367 C 1.471058 17.942247 1.177363 17.963796 0.883223 17.978235 C 0.589084 17.992675 0.2945 18.000006 -0.0000834043 18.000006 C -0.294667 18.000006 -0.589029 17.992675 -0.883168 17.978235 C -1.17753 17.963796 -1.471225 17.942247 -1.764253 17.913367 C -2.057504 17.884488 -2.349644 17.848499 -2.641117 17.80518 C -2.932591 17.76186 -3.222731 17.711654 -3.511539 17.654117 C -3.800568 17.59658 -4.087821 17.532156 -4.37374 17.460623 C -4.659438 17.389091 -4.943135 17.310449 -5.225056 17.224921 C -5.506977 17.139393 -5.786676 17.046978 -6.063931 16.947898 C -6.341408 16.848597 -6.61622 16.742631 -6.888365 16.629778 C -7.160511 16.517147 -7.429768 16.397852 -7.695916 16.271892 C -7.962285 16.145933 -8.225322 16.013531 -8.485249 15.874686 C -8.744953 15.73562 -9.001104 15.590555 -9.253921 15.439048 C -9.506517 15.287763 -9.755336 15.130035 -10.000155 14.966532 C -10.245198 14.802807 -10.486019 14.633305 -10.722619 14.457806 C -10.959219 14.282307 -11.191375 14.101031 -11.419089 13.914202 C -11.646803 13.727373 -11.869851 13.53499 -12.088012 13.337054 C -12.306395 13.139339 -12.519668 12.936293 -12.727832 12.727915 C -12.936217 12.519537 -13.139271 12.306272 -13.337215 12.08812 C -13.534938 11.869745 -13.727328 11.646705 -13.914164 11.419 C -14.101 11.191296 -14.282283 10.959148 -14.457789 10.722557 C -14.633295 10.485966 -14.802803 10.245154 -14.966534 10.000343 C -15.130044 9.75531 -15.287555 9.506501 -15.439068 9.253915 C -15.590581 9.001107 -15.735651 8.744967 -15.874501 8.48505 C -16.01335 8.225355 -16.145758 7.962329 -16.271722 7.695969 C -16.397687 7.42961 -16.516986 7.160363 -16.629844 6.888228 C -16.742478 6.616093 -16.848449 6.341292 -16.947754 6.064047 C -17.047059 5.78658 -17.139478 5.507114 -17.225009 5.225204 C -17.310541 4.943294 -17.388963 4.659385 -17.460498 4.373699 C -17.532034 4.08779 -17.596682 3.800549 -17.654222 3.51153 C -17.711539 3.222734 -17.761969 2.932604 -17.805068 2.641142 C -17.848389 2.34968 -17.884379 2.057551 -17.91326 1.764311 C -17.942141 1.471072 -17.963912 1.177388 -17.978353 0.88326 C -17.992793 0.58891 -17.999902 0.294559 -17.999902 -0.0000131161 C -17.999902 -0.294586 -17.992793 -0.588936 -17.978353 -0.883286 C -17.963912 -1.177414 -17.942141 -1.471098 -17.91326 -1.764338 C -17.884379 -2.057577 -17.848389 -2.349706 -17.805068 -2.641168 C -17.761969 -2.93263 -17.711539 -3.22276 -17.654222 -3.511556 C -17.596682 -3.800575 -17.532034 -4.087816 -17.460498 -4.373725 C -17.388963 -4.659411 -17.310541 -4.943321 -17.225009 -5.22523 C -17.139478 -5.506918 -17.047059 -5.786606 -16.947754 -6.064073 C -16.848449 -6.341318 -16.742478 -6.616119 -16.629844 -6.888254 C -16.516986 -7.160389 -16.397687 -7.429636 -16.271722 -7.695996 C -16.145758 -7.962355 -16.01335 -8.225382 -15.874501 -8.485076 C -15.735651 -8.744993 -15.590581 -9.001134 -15.439068 -9.253942 C -15.287777 -9.506527 -15.130044 -9.755337 -14.966534 -10.000369 C -14.802803 -10.24518 -14.633295 -10.485992 -14.457789 -10.722583 C -14.282283 -10.959174 -14.101 -11.191322 -13.914164 -11.419027 C -13.727328 -11.646732 -13.534938 -11.869771 -13.337215 -12.088146 C -13.139271 -12.306298 -12.936217 -12.519563 -12.727832 -12.727941 C -12.519668 -12.936319 -12.306395 -13.139365 -12.088012 -13.33708 C -11.869851 -13.535016 -11.646803 -13.727399 -11.419089 -13.914228 C -11.191375 -14.101058 -10.959219 -14.282333 -10.722619 -14.457832 C -10.486019 -14.63311 -10.245198 -14.802833 -10.000155 -14.966558 C -9.755336 -15.130062 -9.506517 -15.287567 -9.253921 -15.439074 C -9.001104 -15.590581 -8.744953 -15.735646 -8.485249 -15.87449 C -8.225322 -16.013335 -7.962285 -16.145959 -7.695916 -16.271696 C -7.429768 -16.397656 -7.160511 -16.517173 -6.888365 -16.629804 C -6.61622 -16.742657 -6.341408 -16.848623 -6.063931 -16.947702 C -5.786676 -17.047004 -5.506977 -17.139419 -5.225056 -17.224947 C -4.943135 -17.310475 -4.659438 -17.388895 -4.37374 -17.460649 C -4.087821 -17.532182 -3.800568 -17.596606 -3.511539 -17.654143 C -3.222731 -17.71168 -2.932591 -17.761886 -2.641117 -17.805206 C -2.349644 -17.848303 -2.057504 -17.884514 -1.764253 -17.913393 C -1.471225 -17.942273 -1.17753 -17.963822 -0.883168 -17.978262 C -0.589029 -17.992701 -0.294667 -18.000032 -0.0000834043 -18.000032 C 0.2945 -18.000032 0.589084 -17.992701 0.883223 -17.978262 C 1.177363 -17.963822 1.471058 -17.942273 1.764308 -17.913393 C 2.057559 -17.884514 2.349699 -17.848303 2.641173 -17.805206 C 2.932646 -17.761886 3.222787 -17.71168 3.511594 -17.654143 C 3.800624 -17.596606 4.087876 -17.532182 4.373573 -17.460649 C 4.659493 -17.388895 4.943191 -17.310475 5.225111 -17.224947 C 5.507032 -17.139419 5.786731 -17.047004 6.063986 -16.947702 C 6.341464 -16.848623 6.616053 -16.742657 6.888198 -16.629804 C 7.160566 -16.517173 7.429602 -16.397656 7.695971 -16.271696 C 7.96234 -16.145959 8.225377 -16.013557 8.485082 -15.87449 C 8.745009 -15.735646 9.001159 -15.590581 9.253754 -15.439074 C 9.506572 -15.287567 9.755391 -15.130062 10.000211 -14.966558 C 10.245253 -14.802833 10.486074 -14.63311 10.722674 -14.457832 C 10.959274 -14.282333 11.191431 -14.101058 11.419144 -13.914228 C 11.646858 -13.727399 11.869684 -13.535016 12.088067 -13.33708 C 12.306228 -13.139365 12.519723 -12.936319 12.727887 -12.727941 C 12.936273 -12.519563 13.139327 -12.306298 13.337049 -12.088146 C 13.534993 -11.869771 13.727383 -11.646732 13.914219 -11.419027 C 14.101056 -11.191322 14.282338 -10.959174 14.457622 -10.722583 C 14.633128 -10.485992 14.802858 -10.24518 14.966367 -10.000369 C 15.130099 -9.755337 15.28761 -9.506527 15.439123 -9.253942 C 15.590636 -9.001134 15.735706 -8.744993 15.874556 -8.485076 C 16.013406 -8.225382 16.145813 -7.962355 16.271778 -7.695996 C 16.397742 -7.429636 16.517042 -7.160389 16.629899 -6.888254 C 16.742534 -6.616119 16.848504 -6.341318 16.947809 -6.064073 C 17.047115 -5.786606 17.139311 -5.506918 17.224842 -5.22523 C 17.310374 -4.943321 17.389018 -4.659411 17.460554 -4.373725 C 17.532089 -4.087816 17.596738 -3.800575 17.654055 -3.511556 C 17.711594 -3.22276 17.762024 -2.93263 17.805123 -2.641168 C 17.848444 -2.349706 17.884434 -2.057577 17.913315 -1.764338 C 17.942196 -1.471098 17.963968 -1.177414 17.978408 -0.883286 C 17.992848 -0.588936 17.999957 -0.294586 17.999957 -0.0000131161 Z M 17.999957 -0.0000131161 " stroke="#eff4fa" stroke-width="3.5" stroke-opacity="1" stroke-miterlimit="4"/></g><path fill="#eff4fa" d="M 774.175781 787.960938 C 774.175781 789.6875 774.132812 791.414062 774.046875 793.136719 C 773.964844 794.863281 773.835938 796.582031 773.667969 798.300781 C 773.5 800.019531 773.289062 801.734375 773.035156 803.441406 C 772.78125 805.148438 772.484375 806.851562 772.148438 808.542969 C 771.8125 810.238281 771.433594 811.921875 771.015625 813.597656 C 770.59375 815.269531 770.132812 816.933594 769.632812 818.585938 C 769.132812 820.238281 768.589844 821.878906 768.007812 823.503906 C 767.425781 825.128906 766.804688 826.738281 766.144531 828.335938 C 765.484375 829.929688 764.785156 831.507812 764.046875 833.070312 C 763.308594 834.628906 762.53125 836.171875 761.71875 837.695312 C 760.90625 839.21875 760.054688 840.71875 759.167969 842.199219 C 758.277344 843.679688 757.355469 845.140625 756.394531 846.574219 C 755.4375 848.011719 754.441406 849.421875 753.414062 850.808594 C 752.386719 852.195312 751.324219 853.554688 750.230469 854.890625 C 749.132812 856.226562 748.007812 857.53125 746.847656 858.8125 C 745.6875 860.089844 744.496094 861.339844 743.277344 862.5625 C 742.054688 863.785156 740.804688 864.972656 739.527344 866.132812 C 738.246094 867.292969 736.9375 868.421875 735.605469 869.515625 C 734.269531 870.609375 732.910156 871.671875 731.523438 872.703125 C 730.136719 873.730469 728.726562 874.722656 727.289062 875.683594 C 725.851562 876.640625 724.394531 877.566406 722.914062 878.453125 C 721.433594 879.339844 719.929688 880.191406 718.410156 881.007812 C 716.886719 881.820312 715.34375 882.597656 713.785156 883.335938 C 712.222656 884.074219 710.644531 884.773438 709.050781 885.433594 C 707.453125 886.09375 705.84375 886.714844 704.21875 887.296875 C 702.59375 887.878906 700.953125 888.417969 699.300781 888.921875 C 697.648438 889.421875 695.984375 889.882812 694.3125 890.300781 C 692.636719 890.722656 690.953125 891.097656 689.257812 891.4375 C 687.566406 891.773438 685.863281 892.070312 684.15625 892.320312 C 682.449219 892.574219 680.734375 892.785156 679.019531 892.957031 C 677.300781 893.125 675.578125 893.25 673.855469 893.335938 C 672.128906 893.421875 670.402344 893.464844 668.675781 893.464844 C 666.949219 893.464844 665.226562 893.421875 663.5 893.335938 C 661.777344 893.25 660.054688 893.125 658.335938 892.957031 C 656.617188 892.785156 654.90625 892.574219 653.199219 892.320312 C 651.488281 892.070312 649.789062 891.773438 648.09375 891.4375 C 646.402344 891.097656 644.71875 890.722656 643.042969 890.300781 C 641.367188 889.882812 639.703125 889.421875 638.050781 888.921875 C 636.402344 888.417969 634.761719 887.878906 633.136719 887.296875 C 631.511719 886.714844 629.898438 886.09375 628.304688 885.433594 C 626.710938 884.773438 625.132812 884.074219 623.570312 883.335938 C 622.011719 882.597656 620.46875 881.820312 618.945312 881.007812 C 617.421875 880.191406 615.921875 879.339844 614.441406 878.453125 C 612.960938 877.566406 611.5 876.640625 610.066406 875.683594 C 608.628906 874.722656 607.21875 873.730469 605.832031 872.703125 C 604.445312 871.671875 603.085938 870.609375 601.75 869.515625 C 600.414062 868.421875 599.109375 867.292969 597.828125 866.132812 C 596.550781 864.972656 595.300781 863.785156 594.078125 862.5625 C 592.859375 861.339844 591.667969 860.089844 590.507812 858.8125 C 589.347656 857.53125 588.222656 856.226562 587.125 854.890625 C 586.03125 853.554688 584.96875 852.195312 583.941406 850.808594 C 582.910156 849.421875 581.917969 848.011719 580.957031 846.574219 C 580 845.140625 579.074219 843.679688 578.1875 842.199219 C 577.300781 840.71875 576.449219 839.21875 575.636719 837.695312 C 574.820312 836.171875 574.046875 834.628906 573.308594 833.070312 C 572.570312 831.507812 571.871094 829.929688 571.210938 828.335938 C 570.546875 826.738281 569.925781 825.128906 569.347656 823.503906 C 568.765625 821.878906 568.222656 820.238281 567.722656 818.585938 C 567.21875 816.933594 566.761719 815.269531 566.339844 813.597656 C 565.921875 811.921875 565.542969 810.238281 565.207031 808.542969 C 564.867188 806.851562 564.574219 805.148438 564.320312 803.441406 C 564.066406 801.734375 563.855469 800.019531 563.6875 798.300781 C 563.515625 796.582031 563.390625 794.863281 563.304688 793.136719 C 563.222656 791.414062 563.179688 789.6875 563.179688 787.960938 C 563.179688 786.234375 563.222656 784.507812 563.304688 782.785156 C 563.390625 781.058594 563.515625 779.339844 563.6875 777.621094 C 563.855469 775.902344 564.066406 774.1875 564.320312 772.480469 C 564.574219 770.773438 564.867188 769.070312 565.207031 767.378906 C 565.542969 765.683594 565.921875 764 566.339844 762.324219 C 566.761719 760.652344 567.21875 758.988281 567.722656 757.335938 C 568.222656 755.683594 568.765625 754.042969 569.347656 752.417969 C 569.925781 750.792969 570.546875 749.183594 571.210938 747.585938 C 571.871094 745.992188 572.570312 744.414062 573.308594 742.851562 C 574.046875 741.292969 574.820312 739.75 575.636719 738.226562 C 576.449219 736.703125 577.300781 735.203125 578.1875 733.722656 C 579.074219 732.242188 580 730.78125 580.957031 729.347656 C 581.917969 727.910156 582.910156 726.5 583.941406 725.113281 C 584.96875 723.726562 586.03125 722.367188 587.125 721.03125 C 588.222656 719.695312 589.347656 718.390625 590.507812 717.109375 C 591.667969 715.832031 592.859375 714.582031 594.078125 713.359375 C 595.300781 712.140625 596.550781 710.949219 597.828125 709.789062 C 599.109375 708.628906 600.414062 707.503906 601.75 706.40625 C 603.085938 705.3125 604.445312 704.25 605.832031 703.222656 C 607.21875 702.191406 608.628906 701.199219 610.066406 700.238281 C 611.5 699.28125 612.960938 698.355469 614.441406 697.46875 C 615.921875 696.582031 617.421875 695.730469 618.945312 694.917969 C 620.46875 694.101562 622.011719 693.328125 623.570312 692.589844 C 625.132812 691.851562 626.710938 691.148438 628.304688 690.488281 C 629.898438 689.828125 631.511719 689.207031 633.136719 688.625 C 634.761719 688.042969 636.402344 687.503906 638.050781 687 C 639.703125 686.5 641.367188 686.039062 643.042969 685.621094 C 644.71875 685.199219 646.402344 684.824219 648.09375 684.484375 C 649.789062 684.148438 651.488281 683.855469 653.199219 683.601562 C 654.90625 683.347656 656.617188 683.136719 658.335938 682.964844 C 660.054688 682.796875 661.777344 682.671875 663.5 682.585938 C 665.226562 682.5 666.949219 682.457031 668.675781 682.457031 C 670.402344 682.457031 672.128906 682.5 673.855469 682.585938 C 675.578125 682.671875 677.300781 682.796875 679.019531 682.964844 C 680.734375 683.136719 682.449219 683.347656 684.15625 683.601562 C 685.863281 683.855469 687.566406 684.148438 689.257812 684.484375 C 690.953125 684.824219 692.636719 685.199219 694.3125 685.621094 C 695.984375 686.039062 697.648438 686.5 699.300781 687 C 700.953125 687.503906 702.59375 688.042969 704.21875 688.625 C 705.84375 689.207031 707.453125 689.828125 709.050781 690.488281 C 710.644531 691.148438 712.222656 691.851562 713.785156 692.589844 C 715.34375 693.328125 716.886719 694.101562 718.410156 694.917969 C 719.929688 695.730469 721.433594 696.582031 722.914062 697.46875 C 724.394531 698.355469 725.851562 699.28125 727.289062 700.238281 C 728.726562 701.199219 730.136719 702.191406 731.523438 703.222656 C 732.910156 704.25 734.269531 705.3125 735.605469 706.40625 C 736.9375 707.503906 738.246094 708.628906 739.527344 709.789062 C 740.804688 710.949219 742.054688 712.140625 743.277344 713.359375 C 744.496094 714.582031 745.6875 715.832031 746.847656 717.109375 C 748.007812 718.390625 749.132812 719.695312 750.230469 721.03125 C 751.324219 722.367188 752.386719 723.726562 753.414062 725.113281 C 754.441406 726.5 755.4375 727.910156 756.394531 729.347656 C 757.355469 730.78125 758.277344 732.242188 759.167969 733.722656 C 760.054688 735.203125 760.90625 736.703125 761.71875 738.226562 C 762.53125 739.75 763.308594 741.292969 764.046875 742.851562 C 764.785156 744.414062 765.484375 745.992188 766.144531 747.585938 C 766.804688 749.183594 767.425781 750.792969 768.007812 752.417969 C 768.589844 754.042969 769.132812 755.683594 769.632812 757.335938 C 770.132812 758.988281 770.59375 760.652344 771.015625 762.324219 C 771.433594 764 771.8125 765.683594 772.148438 767.378906 C 772.484375 769.070312 772.78125 770.773438 773.035156 772.480469 C 773.289062 774.1875 773.5 775.902344 773.667969 777.621094 C 773.835938 779.339844 773.964844 781.058594 774.046875 782.785156 C 774.132812 784.507812 774.175781 786.234375 774.175781 787.960938 Z M 774.175781 787.960938 " fill-opacity="1" fill-rule="nonzero"/><path fill="#0e1741" d="M 747.800781 260.449219 L 1152.210938 260.449219 C 1153.507812 260.449219 1154.800781 260.480469 1156.09375 260.542969 C 1157.386719 260.609375 1158.679688 260.703125 1159.96875 260.828125 C 1161.257812 260.957031 1162.539062 261.113281 1163.820312 261.304688 C 1165.101562 261.496094 1166.378906 261.714844 1167.648438 261.96875 C 1168.917969 262.222656 1170.179688 262.503906 1171.4375 262.820312 C 1172.695312 263.136719 1173.941406 263.480469 1175.179688 263.855469 C 1176.417969 264.230469 1177.648438 264.636719 1178.867188 265.074219 C 1180.085938 265.511719 1181.292969 265.976562 1182.492188 266.472656 C 1183.6875 266.96875 1184.871094 267.492188 1186.042969 268.046875 C 1187.210938 268.597656 1188.367188 269.179688 1189.511719 269.792969 C 1190.652344 270.402344 1191.777344 271.039062 1192.890625 271.707031 C 1194 272.371094 1195.09375 273.066406 1196.171875 273.785156 C 1197.246094 274.503906 1198.304688 275.25 1199.347656 276.019531 C 1200.386719 276.792969 1201.40625 277.589844 1202.40625 278.410156 C 1203.410156 279.230469 1204.386719 280.078125 1205.347656 280.945312 C 1206.308594 281.816406 1207.246094 282.707031 1208.160156 283.625 C 1209.078125 284.539062 1209.96875 285.476562 1210.839844 286.4375 C 1211.707031 287.398438 1212.554688 288.378906 1213.375 289.378906 C 1214.195312 290.378906 1214.992188 291.398438 1215.765625 292.441406 C 1216.535156 293.480469 1217.28125 294.539062 1218 295.613281 C 1218.71875 296.691406 1219.414062 297.785156 1220.078125 298.894531 C 1220.746094 300.007812 1221.382812 301.132812 1221.992188 302.277344 C 1222.601562 303.417969 1223.183594 304.574219 1223.738281 305.746094 C 1224.292969 306.914062 1224.816406 308.097656 1225.3125 309.296875 C 1225.808594 310.492188 1226.273438 311.699219 1226.710938 312.917969 C 1227.148438 314.136719 1227.550781 315.367188 1227.929688 316.605469 C 1228.304688 317.84375 1228.648438 319.09375 1228.964844 320.347656 C 1229.277344 321.605469 1229.5625 322.867188 1229.816406 324.140625 C 1230.066406 325.410156 1230.289062 326.683594 1230.480469 327.964844 C 1230.667969 329.246094 1230.828125 330.53125 1230.953125 331.820312 C 1231.082031 333.109375 1231.175781 334.398438 1231.242188 335.691406 C 1231.304688 336.988281 1231.335938 338.28125 1231.335938 339.574219 C 1231.335938 340.871094 1231.304688 342.164062 1231.242188 343.457031 C 1231.175781 344.75 1231.082031 346.042969 1230.953125 347.332031 C 1230.828125 348.621094 1230.667969 349.90625 1230.480469 351.1875 C 1230.289062 352.46875 1230.066406 353.742188 1229.816406 355.011719 C 1229.5625 356.28125 1229.277344 357.546875 1228.964844 358.800781 C 1228.648438 360.058594 1228.304688 361.304688 1227.929688 362.542969 C 1227.550781 363.785156 1227.148438 365.011719 1226.710938 366.234375 C 1226.273438 367.453125 1225.808594 368.660156 1225.3125 369.855469 C 1224.816406 371.050781 1224.292969 372.234375 1223.738281 373.40625 C 1223.183594 374.578125 1222.601562 375.734375 1221.992188 376.875 C 1221.382812 378.019531 1220.746094 379.144531 1220.078125 380.253906 C 1219.414062 381.367188 1218.71875 382.460938 1218 383.535156 C 1217.28125 384.613281 1216.535156 385.671875 1215.765625 386.710938 C 1214.992188 387.75 1214.195312 388.773438 1213.375 389.773438 C 1212.554688 390.773438 1211.707031 391.753906 1210.839844 392.714844 C 1209.96875 393.671875 1209.078125 394.609375 1208.160156 395.527344 C 1207.246094 396.441406 1206.308594 397.335938 1205.347656 398.203125 C 1204.390625 399.074219 1203.410156 399.921875 1202.40625 400.742188 C 1201.40625 401.5625 1200.386719 402.359375 1199.347656 403.132812 C 1198.304688 403.902344 1197.246094 404.648438 1196.171875 405.367188 C 1195.09375 406.085938 1194 406.777344 1192.890625 407.445312 C 1191.777344 408.109375 1190.652344 408.75 1189.511719 409.359375 C 1188.367188 409.96875 1187.210938 410.550781 1186.042969 411.105469 C 1184.871094 411.660156 1183.6875 412.183594 1182.492188 412.679688 C 1181.292969 413.175781 1180.085938 413.640625 1178.867188 414.078125 C 1177.648438 414.511719 1176.417969 414.917969 1175.179688 415.296875 C 1173.941406 415.671875 1172.695312 416.015625 1171.4375 416.332031 C 1170.179688 416.644531 1168.917969 416.929688 1167.648438 417.183594 C 1166.378906 417.433594 1165.101562 417.65625 1163.820312 417.847656 C 1162.539062 418.035156 1161.257812 418.195312 1159.96875 418.320312 C 1158.679688 418.449219 1157.386719 418.542969 1156.09375 418.605469 C 1154.800781 418.671875 1153.507812 418.703125 1152.210938 418.703125 L 747.800781 418.703125 C 746.507812 418.703125 745.210938 418.671875 743.917969 418.605469 C 742.625 418.542969 741.335938 418.449219 740.046875 418.320312 C 738.757812 418.195312 737.472656 418.035156 736.191406 417.847656 C 734.910156 417.65625 733.636719 417.433594 732.363281 417.183594 C 731.09375 416.929688 729.832031 416.644531 728.574219 416.332031 C 727.320312 416.015625 726.070312 415.671875 724.832031 415.296875 C 723.59375 414.917969 722.363281 414.511719 721.144531 414.078125 C 719.925781 413.640625 718.71875 413.175781 717.523438 412.679688 C 716.324219 412.183594 715.140625 411.660156 713.972656 411.105469 C 712.800781 410.550781 711.644531 409.96875 710.503906 409.359375 C 709.359375 408.75 708.234375 408.109375 707.125 407.445312 C 706.011719 406.777344 704.917969 406.085938 703.84375 405.367188 C 702.765625 404.648438 701.707031 403.902344 700.667969 403.132812 C 699.628906 402.359375 698.605469 401.5625 697.605469 400.742188 C 696.605469 399.921875 695.625 399.074219 694.664062 398.203125 C 693.707031 397.335938 692.769531 396.441406 691.851562 395.527344 C 690.9375 394.609375 690.042969 393.671875 689.175781 392.714844 C 688.304688 391.753906 687.460938 390.773438 686.636719 389.773438 C 685.816406 388.773438 685.019531 387.75 684.25 386.710938 C 683.476562 385.671875 682.730469 384.613281 682.011719 383.535156 C 681.292969 382.460938 680.601562 381.367188 679.933594 380.253906 C 679.269531 379.144531 678.628906 378.019531 678.019531 376.875 C 677.410156 375.734375 676.828125 374.578125 676.273438 373.40625 C 675.71875 372.234375 675.195312 371.050781 674.699219 369.855469 C 674.203125 368.660156 673.738281 367.453125 673.300781 366.234375 C 672.867188 365.011719 672.460938 363.785156 672.085938 362.542969 C 671.707031 361.304688 671.363281 360.058594 671.046875 358.800781 C 670.734375 357.546875 670.449219 356.28125 670.199219 355.011719 C 669.945312 353.742188 669.722656 352.46875 669.535156 351.1875 C 669.34375 349.90625 669.183594 348.621094 669.058594 347.332031 C 668.929688 346.042969 668.835938 344.75 668.773438 343.457031 C 668.710938 342.164062 668.675781 340.871094 668.675781 339.574219 C 668.675781 338.28125 668.710938 336.988281 668.773438 335.691406 C 668.835938 334.398438 668.929688 333.109375 669.058594 331.820312 C 669.183594 330.53125 669.34375 329.246094 669.535156 327.964844 C 669.722656 326.683594 669.945312 325.410156 670.199219 324.140625 C 670.449219 322.867188 670.734375 321.605469 671.046875 320.347656 C 671.363281 319.09375 671.707031 317.84375 672.085938 316.605469 C 672.460938 315.367188 672.867188 314.136719 673.300781 312.917969 C 673.738281 311.699219 674.203125 310.492188 674.699219 309.296875 C 675.195312 308.097656 675.71875 306.914062 676.273438 305.746094 C 676.828125 304.574219 677.410156 303.417969 678.019531 302.277344 C 678.628906 301.132812 679.269531 300.007812 679.933594 298.894531 C 680.601562 297.785156 681.292969 296.691406 682.011719 295.613281 C 682.730469 294.539062 683.476562 293.480469 684.25 292.441406 C 685.019531 291.398438 685.816406 290.378906 686.636719 289.378906 C 687.460938 288.378906 688.304688 287.398438 689.175781 286.4375 C 690.042969 285.476562 690.9375 284.539062 691.851562 283.625 C 692.769531 282.707031 693.707031 281.816406 694.664062 280.945312 C 695.625 280.078125 696.605469 279.230469 697.605469 278.410156 C 698.605469 277.589844 699.628906 276.792969 700.667969 276.019531 C 701.707031 275.25 702.765625 274.503906 703.84375 273.785156 C 704.917969 273.066406 706.011719 272.371094 707.125 271.707031 C 708.234375 271.039062 709.359375 270.402344 710.503906 269.792969 C 711.644531 269.179688 712.800781 268.597656 713.972656 268.046875 C 715.140625 267.492188 716.324219 266.96875 717.523438 266.472656 C 718.71875 265.976562 719.925781 265.511719 721.144531 265.074219 C 722.363281 264.636719 723.59375 264.230469 724.832031 263.855469 C 726.070312 263.480469 727.320312 263.136719 728.574219 262.820312 C 729.832031 262.503906 731.09375 262.222656 732.363281 261.96875 C 733.636719 261.714844 734.910156 261.496094 736.191406 261.304688 C 737.472656 261.113281 738.757812 260.957031 740.046875 260.828125 C 741.335938 260.703125 742.625 260.609375 743.917969 260.542969 C 745.210938 260.480469 746.507812 260.449219 747.800781 260.449219 Z M 747.800781 260.449219 " fill-opacity="1" fill-rule="nonzero"/><path fill="#eff4fa" d="M 708.238281 735.210938 L 945.609375 735.210938 C 946.90625 735.210938 948.199219 735.273438 949.488281 735.402344 C 950.777344 735.527344 952.058594 735.71875 953.328125 735.96875 C 954.601562 736.222656 955.855469 736.539062 957.09375 736.914062 C 958.335938 737.289062 959.554688 737.726562 960.75 738.222656 C 961.949219 738.71875 963.117188 739.269531 964.261719 739.882812 C 965.402344 740.492188 966.511719 741.15625 967.589844 741.878906 C 968.667969 742.597656 969.707031 743.367188 970.707031 744.191406 C 971.710938 745.011719 972.667969 745.882812 973.585938 746.796875 C 974.5 747.714844 975.371094 748.671875 976.191406 749.675781 C 977.015625 750.675781 977.785156 751.714844 978.503906 752.792969 C 979.226562 753.871094 979.890625 754.980469 980.5 756.125 C 981.113281 757.265625 981.664062 758.4375 982.160156 759.632812 C 982.65625 760.832031 983.09375 762.046875 983.46875 763.289062 C 983.84375 764.527344 984.160156 765.785156 984.414062 767.054688 C 984.664062 768.324219 984.855469 769.605469 984.980469 770.894531 C 985.109375 772.183594 985.171875 773.476562 985.171875 774.773438 C 985.171875 776.070312 985.109375 777.363281 984.980469 778.652344 C 984.855469 779.941406 984.664062 781.222656 984.414062 782.492188 C 984.160156 783.761719 983.84375 785.019531 983.46875 786.257812 C 983.09375 787.496094 982.65625 788.714844 982.160156 789.914062 C 981.664062 791.109375 981.113281 792.28125 980.5 793.421875 C 979.890625 794.566406 979.226562 795.675781 978.503906 796.753906 C 977.785156 797.832031 977.015625 798.871094 976.191406 799.871094 C 975.371094 800.875 974.5 801.832031 973.585938 802.75 C 972.667969 803.664062 971.710938 804.535156 970.707031 805.355469 C 969.707031 806.179688 968.667969 806.949219 967.589844 807.667969 C 966.511719 808.390625 965.402344 809.054688 964.261719 809.664062 C 963.117188 810.277344 961.949219 810.828125 960.75 811.324219 C 959.554688 811.820312 958.335938 812.257812 957.09375 812.632812 C 955.855469 813.007812 954.601562 813.324219 953.328125 813.578125 C 952.058594 813.828125 950.777344 814.019531 949.488281 814.144531 C 948.199219 814.273438 946.90625 814.335938 945.609375 814.335938 L 708.238281 814.335938 C 706.945312 814.335938 705.652344 814.273438 704.363281 814.144531 C 703.070312 814.019531 701.792969 813.828125 700.519531 813.578125 C 699.25 813.324219 697.996094 813.007812 696.753906 812.632812 C 695.515625 812.257812 694.296875 811.820312 693.097656 811.324219 C 691.902344 810.828125 690.734375 810.277344 689.589844 809.664062 C 688.445312 809.054688 687.335938 808.390625 686.257812 807.667969 C 685.183594 806.949219 684.144531 806.179688 683.140625 805.355469 C 682.140625 804.535156 681.179688 803.664062 680.265625 802.75 C 679.347656 801.832031 678.480469 800.875 677.65625 799.871094 C 676.835938 798.871094 676.066406 797.832031 675.34375 796.753906 C 674.625 795.675781 673.960938 794.566406 673.347656 793.421875 C 672.738281 792.28125 672.183594 791.109375 671.6875 789.914062 C 671.191406 788.714844 670.757812 787.496094 670.378906 786.257812 C 670.003906 785.019531 669.691406 783.761719 669.4375 782.492188 C 669.183594 781.222656 668.996094 779.941406 668.867188 778.652344 C 668.742188 777.363281 668.675781 776.070312 668.675781 774.773438 C 668.675781 773.476562 668.742188 772.183594 668.867188 770.894531 C 668.996094 769.605469 669.183594 768.324219 669.4375 767.054688 C 669.691406 765.785156 670.003906 764.527344 670.378906 763.289062 C 670.757812 762.046875 671.191406 760.832031 671.6875 759.632812 C 672.183594 758.4375 672.738281 757.265625 673.347656 756.125 C 673.960938 754.980469 674.625 753.871094 675.34375 752.792969 C 676.066406 751.714844 676.835938 750.675781 677.65625 749.675781 C 678.480469 748.671875 679.347656 747.714844 680.265625 746.796875 C 681.179688 745.882812 682.140625 745.011719 683.140625 744.191406 C 684.144531 743.367188 685.183594 742.597656 686.257812 741.878906 C 687.335938 741.15625 688.445312 740.492188 689.589844 739.882812 C 690.734375 739.269531 691.902344 738.71875 693.097656 738.222656 C 694.296875 737.726562 695.515625 737.289062 696.753906 736.914062 C 697.996094 736.539062 699.25 736.222656 700.519531 735.96875 C 701.792969 735.71875 703.070312 735.527344 704.363281 735.402344 C 705.652344 735.273438 706.945312 735.210938 708.238281 735.210938 Z M 708.238281 735.210938 " fill-opacity="1" fill-rule="nonzero"/></svg>
